<svg width="32" height="32" viewBox="0 0 32 32" fill="none" xmlns="http://www.w3.org/2000/svg">
<mask id="path-1-inside-1_743_8750" fill="white">
<path d="M27.09 5.98914C25.05 5.06914 22.8633 4.38914 20.5766 4.00247C20.5563 3.99856 20.5352 4.00108 20.5163 4.00968C20.4975 4.01828 20.4817 4.03253 20.4713 4.05047C20.1913 4.54247 19.8793 5.1838 19.6606 5.69047C17.2354 5.32812 14.7698 5.32812 12.3446 5.69047C12.1011 5.12895 11.8264 4.58143 11.522 4.05047C11.5117 4.03231 11.496 4.01774 11.4772 4.00868C11.4584 3.99963 11.4373 3.99653 11.4166 3.9998C9.13131 4.38647 6.94464 5.06647 4.90331 5.9878C4.88575 5.99517 4.87086 6.00773 4.86064 6.0238C0.711308 12.1238 -0.426026 18.0731 0.132641 23.9478C0.134195 23.9622 0.138662 23.9761 0.145767 23.9887C0.152873 24.0013 0.16247 24.0124 0.173974 24.0211C2.59583 25.7844 5.29709 27.1276 8.16464 27.9945C8.18463 28.0006 8.20601 28.0006 8.22599 27.9944C8.24597 27.9882 8.26362 27.9762 8.27664 27.9598C8.8937 27.1346 9.4405 26.2591 9.91131 25.3425C9.91784 25.3299 9.92161 25.3161 9.92235 25.302C9.92309 25.2879 9.9208 25.2738 9.91561 25.2607C9.91043 25.2475 9.90248 25.2356 9.89231 25.2258C9.88213 25.216 9.86997 25.2085 9.85664 25.2038C8.99531 24.8794 8.16075 24.488 7.36064 24.0331C7.34626 24.0249 7.33415 24.0133 7.32538 23.9992C7.31662 23.9852 7.31148 23.9692 7.31042 23.9527C7.30936 23.9362 7.31242 23.9196 7.31933 23.9046C7.32623 23.8895 7.33676 23.8764 7.34997 23.8665C7.51797 23.7425 7.68597 23.6131 7.84597 23.4838C7.86038 23.4722 7.87772 23.4648 7.89609 23.4624C7.91445 23.4601 7.9331 23.4628 7.94997 23.4705C13.186 25.8225 18.8566 25.8225 24.0313 23.4705C24.0482 23.4624 24.0671 23.4592 24.0857 23.4614C24.1043 23.4635 24.122 23.4708 24.1366 23.4825C24.2966 23.6131 24.4633 23.7425 24.6326 23.8665C24.646 23.8762 24.6567 23.8892 24.6638 23.9041C24.6709 23.919 24.6743 23.9354 24.6735 23.952C24.6727 23.9685 24.6678 23.9845 24.6593 23.9987C24.6508 24.0129 24.6389 24.0247 24.6246 24.0331C23.8273 24.4918 22.998 24.8798 22.1273 25.2025C22.1139 25.2073 22.1018 25.215 22.0916 25.2249C22.0814 25.2348 22.0735 25.2468 22.0683 25.2601C22.0631 25.2733 22.0608 25.2875 22.0616 25.3018C22.0623 25.316 22.0661 25.3298 22.0726 25.3425C22.5526 26.2585 23.102 27.1305 23.706 27.9585C23.7185 27.9755 23.736 27.9882 23.7561 27.9948C23.7761 28.0015 23.7977 28.0019 23.818 27.9958C26.6904 27.1313 29.3961 25.7875 31.8206 24.0211C31.8325 24.0129 31.8424 24.0022 31.8498 23.9897C31.8571 23.9773 31.8617 23.9635 31.8633 23.9491C32.53 17.1571 30.746 11.2558 27.1313 6.02647C27.1224 6.00947 27.1078 5.99623 27.09 5.98914ZM10.694 20.3705C9.11798 20.3705 7.81797 18.9451 7.81797 17.1971C7.81797 15.4478 9.09264 14.0238 10.694 14.0238C12.3073 14.0238 13.5953 15.4598 13.57 17.1971C13.57 18.9465 12.2953 20.3705 10.694 20.3705V20.3705ZM21.3273 20.3705C19.75 20.3705 18.4513 18.9451 18.4513 17.1971C18.4513 15.4478 19.7246 14.0238 21.3273 14.0238C22.9406 14.0238 24.2286 15.4598 24.2033 17.1971C24.2033 18.9465 22.942 20.3705 21.3273 20.3705V20.3705Z"/>
</mask>
<path d="M27.09 5.98914L26.6789 6.90072L26.6992 6.9099L26.7199 6.91816L27.09 5.98914ZM20.5766 4.00247L20.3881 4.98454L20.399 4.98663L20.4099 4.98847L20.5766 4.00247ZM20.4713 4.05047L19.6064 3.54838L19.6022 3.55585L20.4713 4.05047ZM19.6606 5.69047L19.5129 6.67949L20.2739 6.79319L20.5788 6.08672L19.6606 5.69047ZM12.3446 5.69047L11.4272 6.08839L11.7328 6.79298L12.4924 6.67949L12.3446 5.69047ZM11.522 4.05047L10.6526 4.54463L10.6545 4.54791L11.522 4.05047ZM11.4166 3.9998L11.26 3.01209L11.2498 3.01382L11.4166 3.9998ZM4.90331 5.9878L5.29009 6.90997L5.30246 6.90478L5.31469 6.89927L4.90331 5.9878ZM4.86064 6.0238L5.68748 6.58624L5.69623 6.57338L5.70457 6.56026L4.86064 6.0238ZM0.132641 23.9478L-0.86295 24.0425L-0.861573 24.0552L0.132641 23.9478ZM0.173974 24.0211L-0.43274 24.8161L-0.42375 24.8229L-0.414609 24.8296L0.173974 24.0211ZM8.16464 27.9945L8.45887 27.0387L8.45402 27.0373L8.16464 27.9945ZM8.27664 27.9598L9.05934 28.5822L9.0686 28.5706L9.07751 28.5586L8.27664 27.9598ZM9.91131 25.3425L9.02459 24.8801L9.02179 24.8856L9.91131 25.3425ZM9.85664 25.2038L9.50422 26.1396L9.51407 26.1434L9.524 26.1469L9.85664 25.2038ZM7.36064 24.0331L6.86491 24.9016L6.86641 24.9025L7.36064 24.0331ZM7.34997 23.8665L6.75609 23.0618L6.74757 23.0683L7.34997 23.8665ZM7.84597 23.4838L7.21769 22.7058L7.21734 22.7061L7.84597 23.4838ZM7.94997 23.4705L7.53826 24.3818L7.54022 24.3827L7.94997 23.4705ZM24.0313 23.4705L24.4451 24.3808L24.4536 24.377L24.462 24.373L24.0313 23.4705ZM24.1366 23.4825L24.7692 22.7079L24.7593 22.7L24.1366 23.4825ZM24.6326 23.8665L24.0418 24.6733L24.042 24.6734L24.6326 23.8665ZM24.6246 24.0331L25.1233 24.9L25.1353 24.8929L24.6246 24.0331ZM22.1273 25.2025L22.4686 26.1425L22.4748 26.1401L22.1273 25.2025ZM22.0726 25.3425L21.1847 25.8025L21.1869 25.8066L22.0726 25.3425ZM23.706 27.9585L22.8981 28.5478L22.9018 28.5528L23.706 27.9585ZM23.818 27.9958L24.1047 28.9538L24.1062 28.9534L23.818 27.9958ZM31.8206 24.0211L31.2477 23.2016L31.2397 23.2072L31.2318 23.2129L31.8206 24.0211ZM31.8633 23.9491L32.8574 24.0582L32.8585 24.0468L31.8633 23.9491ZM27.1313 6.02647L26.2446 6.48882L26.2734 6.54394L26.3087 6.59508L27.1313 6.02647ZM13.57 17.1971L12.5701 17.1826L12.57 17.1898V17.1971H13.57ZM24.2033 17.1971L23.2034 17.1826L23.2033 17.1898V17.1971H24.2033ZM27.5011 5.07755C25.3854 4.12342 23.1168 3.4178 20.7434 3.01647L20.4099 4.98847C22.6099 5.36047 24.7145 6.01485 26.6789 6.90072L27.5011 5.07755ZM20.7651 3.0204C20.5411 2.97739 20.3093 3.00511 20.1017 3.09971L20.931 4.91965C20.7611 4.99705 20.5714 5.01972 20.3881 4.98454L20.7651 3.0204ZM20.1017 3.09971C19.8941 3.1943 19.721 3.3511 19.6065 3.5484L21.3361 4.55254C21.2424 4.71396 21.1008 4.84225 20.931 4.91965L20.1017 3.09971ZM19.6022 3.55585C19.3009 4.08536 18.9729 4.76043 18.7425 5.29422L20.5788 6.08672C20.7857 5.60718 21.0818 4.99958 21.3404 4.54509L19.6022 3.55585ZM19.8084 4.70145C17.2852 4.32446 14.72 4.32446 12.1969 4.70145L12.4924 6.67949C14.8196 6.33178 17.1856 6.33178 19.5129 6.67949L19.8084 4.70145ZM13.2621 5.29255C13.0037 4.69695 12.7124 4.11621 12.3895 3.55303L10.6545 4.54791C10.9405 5.04665 11.1984 5.56095 11.4272 6.08839L13.2621 5.29255ZM12.3913 3.55631C12.2805 3.3613 12.1128 3.20474 11.9107 3.10752L11.0437 4.90985C10.8793 4.83073 10.7428 4.70332 10.6526 4.54462L12.3913 3.55631ZM11.9107 3.10752C11.7086 3.01029 11.4816 2.97701 11.26 3.01214L11.5732 4.98746C11.393 5.01605 11.2082 4.98897 11.0437 4.90985L11.9107 3.10752ZM11.2498 3.01382C8.87778 3.41515 6.60907 4.12079 4.49193 5.07634L5.31469 6.89927C7.28022 6.01215 9.38484 5.35778 11.5835 4.98579L11.2498 3.01382ZM4.51652 5.06563C4.3108 5.15192 4.13639 5.29907 4.01671 5.48735L5.70457 6.56026C5.60532 6.71639 5.46069 6.83842 5.29009 6.90997L4.51652 5.06563ZM4.0338 5.46137C-0.254733 11.766 -1.44219 17.9506 -0.862868 24.0425L1.12815 23.8531C0.590137 18.1957 1.67735 12.4816 5.68748 6.58624L4.0338 5.46137ZM-0.861573 24.0552C-0.845444 24.2045 -0.799107 24.3489 -0.725385 24.4797L1.01692 23.4977C1.07643 23.6033 1.11383 23.7199 1.12685 23.8404L-0.861573 24.0552ZM-0.725385 24.4797C-0.65167 24.6105 -0.552106 24.725 -0.43274 24.8161L0.780688 23.2262C0.877047 23.2998 0.957416 23.3921 1.01692 23.4977L-0.725385 24.4797ZM-0.414609 24.8296C2.09793 26.6588 4.90034 28.0523 7.87526 28.9517L8.45402 27.0373C5.69384 26.2028 3.09373 24.9099 0.762557 23.2127L-0.414609 24.8296ZM7.87042 28.9502C8.08266 29.0155 8.30963 29.0153 8.52168 28.9497L7.93031 27.0391C8.1024 26.9859 8.2866 26.9857 8.45887 27.0387L7.87042 28.9502ZM8.52168 28.9497C8.73378 28.8841 8.92115 28.756 9.05934 28.5822L7.49394 27.3374C7.6061 27.1964 7.75817 27.0924 7.93031 27.0391L8.52168 28.9497ZM9.07751 28.5586C9.72803 27.6886 10.3045 26.7657 10.8008 25.7994L9.02179 24.8856C8.57652 25.7524 8.05937 26.5805 7.47577 27.361L9.07751 28.5586ZM10.798 25.8048C10.8708 25.6653 10.9127 25.5117 10.921 25.3546L8.92373 25.2495C8.93051 25.1206 8.96491 24.9946 9.02461 24.8801L10.798 25.8048ZM10.921 25.3546C10.9292 25.1974 10.9036 25.0403 10.8459 24.8939L8.9853 25.6274C8.93795 25.5073 8.91695 25.3784 8.92373 25.2495L10.921 25.3546ZM10.8459 24.8939C10.7882 24.7475 10.6997 24.6152 10.5864 24.506L9.19819 25.9457C9.10523 25.8561 9.03264 25.7475 8.9853 25.6274L10.8459 24.8939ZM10.5864 24.506C10.4731 24.3967 10.3377 24.3131 10.1893 24.2607L9.524 26.1469C9.40224 26.1039 9.29113 26.0353 9.19819 25.9457L10.5864 24.506ZM10.2091 24.268C9.39667 23.962 8.60953 23.5928 7.85487 23.1638L6.86641 24.9025C7.71198 25.3832 8.59395 25.7969 9.50422 26.1396L10.2091 24.268ZM7.85638 23.1647C7.98578 23.2385 8.09481 23.3434 8.17369 23.4697L6.47708 24.5287C6.57349 24.6832 6.70675 24.8113 6.86491 24.9016L7.85638 23.1647ZM8.17369 23.4697C8.25257 23.5961 8.29886 23.7401 8.30838 23.8888L6.31246 24.0165C6.32409 24.1983 6.38066 24.3743 6.47708 24.5287L8.17369 23.4697ZM8.30838 23.8888C8.31789 24.0375 8.29034 24.1862 8.22821 24.3216L6.41044 23.4875C6.3345 23.653 6.30083 23.8348 6.31246 24.0165L8.30838 23.8888ZM8.22821 24.3216C8.16609 24.457 8.07133 24.5749 7.95238 24.6647L6.74757 23.0683C6.6022 23.178 6.48637 23.3221 6.41044 23.4875L8.22821 24.3216ZM7.94383 24.671C8.12256 24.5391 8.30224 24.4008 8.47461 24.2615L7.21734 22.7061C7.06971 22.8254 6.91339 22.9458 6.75612 23.0619L7.94383 24.671ZM8.47426 24.2618C8.34465 24.3665 8.18852 24.4331 8.02325 24.4543L7.76892 22.4705C7.56693 22.4964 7.37611 22.5779 7.21769 22.7058L8.47426 24.2618ZM8.02325 24.4543C7.858 24.4755 7.6901 24.4504 7.53826 24.3818L8.36169 22.5592C8.17611 22.4753 7.9709 22.4446 7.76892 22.4705L8.02325 24.4543ZM7.54022 24.3827C13.0353 26.851 19.006 26.853 24.4451 24.3808L23.6175 22.5601C18.7073 24.7919 13.3367 24.7939 8.35973 22.5583L7.54022 24.3827ZM24.462 24.373C24.3097 24.4456 24.1401 24.474 23.9725 24.4549L24.1989 22.4678C23.994 22.4445 23.7867 22.4792 23.6006 22.568L24.462 24.373ZM23.9725 24.4549C23.8049 24.4358 23.646 24.37 23.514 24.265L24.7593 22.7C24.5979 22.5716 24.4037 22.4911 24.1989 22.4678L23.9725 24.4549ZM23.5041 24.257C23.6771 24.3982 23.8576 24.5384 24.0418 24.6733L25.2235 23.0597C25.069 22.9466 24.9162 22.828 24.7692 22.7079L23.5041 24.257ZM24.042 24.6734C23.9219 24.5855 23.8255 24.4692 23.7614 24.3349L25.5662 23.4732C25.4879 23.3091 25.3701 23.167 25.2233 23.0596L24.042 24.6734ZM23.7614 24.3349C23.6973 24.2007 23.6675 24.0526 23.6746 23.904L25.6723 23.9999C25.681 23.8183 25.6446 23.6373 25.5662 23.4732L23.7614 24.3349ZM23.6746 23.904C23.6817 23.7554 23.7256 23.6109 23.8023 23.4834L25.5163 24.514C25.61 24.3582 25.6636 24.1815 25.6723 23.9999L23.6746 23.904ZM23.8023 23.4834C23.8789 23.3559 23.986 23.2494 24.114 23.1734L25.1353 24.8929C25.2917 24.8 25.4226 24.6698 25.5163 24.514L23.8023 23.4834ZM24.126 23.1663C23.3777 23.5968 22.599 23.9612 21.7798 24.2648L22.4748 26.1401C23.3969 25.7984 24.2769 25.3868 25.1233 24.8999L24.126 23.1663ZM21.7861 24.2625C21.639 24.3159 21.505 24.4 21.393 24.5094L22.7901 25.9405C22.6985 26.0299 22.5888 26.0988 22.4685 26.1424L21.7861 24.2625ZM21.393 24.5094C21.281 24.6187 21.1937 24.7506 21.1368 24.8964L22.9998 25.6238C22.9532 25.7431 22.8818 25.851 22.7901 25.9405L21.393 24.5094ZM21.1368 24.8964C21.0798 25.0422 21.0547 25.1984 21.063 25.3546L23.0602 25.2489C23.0669 25.3767 23.0464 25.5045 22.9998 25.6238L21.1368 24.8964ZM21.063 25.3546C21.0712 25.5109 21.1128 25.6636 21.1847 25.8025L22.9605 24.8824C23.0194 24.9961 23.0534 25.121 23.0602 25.2489L21.063 25.3546ZM21.1869 25.8066C21.6914 26.7693 22.2672 27.683 22.8981 28.5478L24.5139 27.3691C23.9367 26.5779 23.4139 25.7476 22.9584 24.8783L21.1869 25.8066ZM22.9018 28.5528C23.0367 28.7354 23.2246 28.8718 23.4398 28.9435L24.0723 27.0462C24.2475 27.1045 24.4004 27.2156 24.5102 27.3641L22.9018 28.5528ZM23.4398 28.9435C23.6551 29.0153 23.8873 29.0189 24.1047 28.9538L23.5313 27.0378C23.7082 26.9848 23.8971 26.9878 24.0723 27.0462L23.4398 28.9435ZM24.1062 28.9534C27.0865 28.0564 29.8939 26.6621 32.4095 24.8294L31.2318 23.2129C28.8984 24.9129 26.2943 26.2062 23.5298 27.0382L24.1062 28.9534ZM32.3936 24.8407C32.5222 24.7508 32.6301 24.6345 32.71 24.4995L30.9895 23.4799C31.0547 23.3698 31.1427 23.2749 31.2477 23.2016L32.3936 24.8407ZM32.71 24.4995C32.79 24.3646 32.8402 24.2141 32.8573 24.0582L30.8693 23.8401C30.8832 23.7129 30.9242 23.5901 30.9895 23.4799L32.71 24.4995ZM32.8585 24.0468C33.5501 17.0006 31.6921 10.8658 27.9539 5.45786L26.3087 6.59508C29.7999 11.6458 31.5098 17.3137 30.8681 23.8515L32.8585 24.0468ZM28.018 5.56412C27.8984 5.33469 27.7004 5.15585 27.46 5.06012L26.7199 6.91816C26.5152 6.8366 26.3465 6.68426 26.2446 6.48882L28.018 5.56412ZM10.694 19.3705C9.7588 19.3705 8.81797 18.4858 8.81797 17.1971H6.81797C6.81797 19.4045 8.47715 21.3705 10.694 21.3705V19.3705ZM8.81797 17.1971C8.81797 15.9015 9.73863 15.0238 10.694 15.0238V13.0238C8.44666 13.0238 6.81797 14.9941 6.81797 17.1971H8.81797ZM10.694 15.0238C11.6686 15.0238 12.5885 15.9189 12.5701 17.1826L14.5699 17.2117C14.6021 15.0007 12.946 13.0238 10.694 13.0238V15.0238ZM12.57 17.1971C12.57 18.4928 11.6493 19.3705 10.694 19.3705V21.3705C12.9413 21.3705 14.57 19.4001 14.57 17.1971H12.57ZM21.3273 19.3705C20.3911 19.3705 19.4513 18.4861 19.4513 17.1971H17.4513C17.4513 19.4042 19.1089 21.3705 21.3273 21.3705V19.3705ZM19.4513 17.1971C19.4513 15.9012 20.3709 15.0238 21.3273 15.0238V13.0238C19.0784 13.0238 17.4513 14.9944 17.4513 17.1971H19.4513ZM21.3273 15.0238C22.302 15.0238 23.2218 15.9189 23.2034 17.1826L25.2032 17.2117C25.2354 15.0007 23.5793 13.0238 21.3273 13.0238V15.0238ZM23.2033 17.1971C23.2033 18.496 22.2931 19.3705 21.3273 19.3705V21.3705C23.5908 21.3705 25.2033 19.397 25.2033 17.1971H23.2033Z" fill="#6039CF" mask="url(#path-1-inside-1_743_8750)"/>
</svg>
