<svg width="25" height="24" viewBox="0 0 25 24" fill="none" xmlns="http://www.w3.org/2000/svg">
<g clip-path="url(#clip0_490_7194)">
<path d="M23.643 12H9.92871" stroke="#5D40B1" stroke-width="2" stroke-linecap="round" stroke-linejoin="round"/>
<path d="M13.3573 8.57153L9.92871 12.0001L13.3573 15.4287" stroke="#5D40B1" stroke-width="2" stroke-linecap="round" stroke-linejoin="round"/>
<path d="M21.8942 18C20.5965 20.0308 18.6754 21.5862 16.419 22.4328C14.1625 23.2793 11.6925 23.3716 9.37921 22.6956C7.06595 22.0196 5.03419 20.6118 3.58868 18.6835C2.14317 16.7551 1.36182 14.41 1.36182 12C1.36182 9.59003 2.14317 7.24498 3.58868 5.3166C5.03419 3.38822 7.06595 1.98047 9.37921 1.30449C11.6925 0.628505 14.1625 0.720725 16.419 1.56732C18.6754 2.41391 20.5965 3.96924 21.8942 6.00004" stroke="#5D40B1" stroke-width="2" stroke-linecap="round" stroke-linejoin="round"/>
</g>
<defs>
<clipPath id="clip0_490_7194">
<rect width="24" height="24" fill="white" transform="translate(0.5)"/>
</clipPath>
</defs>
</svg>
