<svg width="32" height="32" viewBox="0 0 32 32" fill="none" xmlns="http://www.w3.org/2000/svg">
<path d="M27.5534 4.95576L27.7595 5.41131C28.1579 5.23106 28.4561 5.31076 28.6196 5.46877C28.7897 5.63325 28.9582 6.02244 28.7776 6.74677L28.7754 6.75534L28.7736 6.76398L24.7483 25.7346L24.7479 25.7364C24.6211 26.3443 24.4049 26.5705 24.2386 26.6453C24.0725 26.7201 23.7739 26.7266 23.2827 26.4624L17.1784 21.9536L16.8371 21.7014L16.5328 21.9973L13.5862 24.8627L13.5848 24.864L13.5739 24.8745C13.4379 25.0058 13.3435 25.0969 13.2513 25.1656L13.6095 19.8138L24.8333 9.68435C24.8338 9.68388 24.8344 9.68341 24.8349 9.68294C24.9876 9.54704 25.1734 9.33154 25.1841 9.04569C25.1902 8.88455 25.1376 8.72995 25.0343 8.60692C24.9377 8.4918 24.817 8.42746 24.7137 8.39202C24.5131 8.32314 24.2923 8.33204 24.0988 8.37214C23.8957 8.41422 23.6801 8.49911 23.4695 8.62728L23.4695 8.62722L23.4626 8.63156L9.61519 17.3684L3.76628 15.5438L3.76404 15.5431C3.47943 15.4558 3.31251 15.3545 3.22849 15.275C3.18867 15.2374 3.17452 15.2114 3.17007 15.201C3.16686 15.1936 3.1671 15.1914 3.16732 15.1894L3.16737 15.189C3.16812 15.1815 3.18167 15.1023 3.33378 14.9678C3.48224 14.8366 3.72762 14.6855 4.0966 14.537L27.7333 5.42228L27.5534 4.95576Z" stroke="#6039CF"/>
</svg>
