<svg width="36" height="36" viewBox="0 0 36 36" fill="none" xmlns="http://www.w3.org/2000/svg">
<path d="M16.9453 5.34375H19.0547C19.2422 5.34375 19.3359 5.4375 19.3359 5.625V30.375C19.3359 30.5625 19.2422 30.6562 19.0547 30.6562H16.9453C16.7578 30.6562 16.6641 30.5625 16.6641 30.375V5.625C16.6641 5.4375 16.7578 5.34375 16.9453 5.34375Z" fill="white"/>
<path d="M6.1875 16.6641H29.8125C30 16.6641 30.0938 16.7578 30.0938 16.9453V19.0547C30.0938 19.2422 30 19.3359 29.8125 19.3359H6.1875C6 19.3359 5.90625 19.2422 5.90625 19.0547V16.9453C5.90625 16.7578 6 16.6641 6.1875 16.6641Z" fill="white"/>
</svg>
