<svg width="197" height="39" viewBox="0 0 197 39" fill="none" xmlns="http://www.w3.org/2000/svg">
<g clip-path="url(#clip0_234_3344)">
<path d="M28.9212 27.4482C28.9212 29.3793 28.9425 31.3104 28.9099 33.2416C28.8999 33.8596 29.0788 34.1071 29.7404 34.0806C31.0423 34.04 32.3456 34.0806 33.6475 34.0652C34.9494 34.0498 35.8836 33.215 35.8921 31.9677C35.9219 28.2201 36.142 24.4529 35.8538 20.7249C35.0587 10.4457 27.669 2.52539 18.5331 0.0670882C18.148 -0.0327864 17.7426 -0.0274623 17.3604 0.0824765C8.21453 2.90715 2.58295 8.91212 0.465664 18.0974C0.144806 19.4958 0.0667191 20.9626 0.0397453 22.4016C-0.0241432 25.4388 0.0397453 28.4802 0.00283051 31.5174C-0.0184631 33.0556 0.836208 34.2232 2.67191 34.0862C3.79916 34.0211 4.9293 34.0211 6.05655 34.0862C6.74369 34.1141 6.96091 33.8806 6.95665 33.2108C6.93109 29.7471 6.91832 26.2806 6.95665 22.8169C6.9964 18.9225 8.16626 15.393 10.6707 12.3292C12.4425 10.1674 14.6132 8.49355 17.2497 7.46437C17.7158 7.29095 18.2302 7.29095 18.6964 7.46437C24.4775 10.0569 27.9729 14.4086 28.7253 20.641C28.9951 22.8784 28.7693 25.1703 28.7693 27.4384L28.9212 27.4482Z" fill="#5D50C6"/>
<path d="M22.7128 34.2512C22.7062 33.6328 22.5757 33.0218 22.3288 32.4532C22.0819 31.8846 21.7235 31.3695 21.2742 30.9376C20.8248 30.5056 20.2933 30.1653 19.7102 29.9361C19.127 29.7068 18.5036 29.5932 17.8758 29.6017C15.3203 29.6255 13.1268 31.8027 13.1283 34.3085C13.1283 36.8479 15.3686 39.021 17.9709 39.007C18.5998 39.0028 19.2215 38.8763 19.8006 38.6348C20.3796 38.3932 20.9045 38.0414 21.3451 37.5995C21.7857 37.1576 22.1334 36.6343 22.3681 36.0597C22.6028 35.4851 22.7199 34.8705 22.7128 34.2512Z" fill="#5D50C6"/>
</g>
<path d="M43.508 31.5V16.394C43.508 15.7353 43.6727 15.1373 44.002 14.6C44.3313 14.0453 44.7647 13.6033 45.302 13.274C45.8567 12.9447 46.4633 12.78 47.122 12.78H58.588C59.2467 12.78 59.8533 12.9447 60.408 13.274C60.9627 13.6033 61.4047 14.0453 61.734 14.6C62.0633 15.1373 62.228 15.7353 62.228 16.394V31.5H58.77V25.208H46.94V31.5H43.508ZM46.94 21.776H58.77V16.55C58.77 16.4633 58.7353 16.394 58.666 16.342C58.5967 16.2727 58.5187 16.238 58.432 16.238H47.252C47.1653 16.238 47.0873 16.2727 47.018 16.342C46.966 16.394 46.94 16.4633 46.94 16.55V21.776ZM80.7644 31.5L75.1224 24.766H79.6204L84.5084 30.538V31.5H80.7644ZM65.8404 31.5V12.806H80.9204C81.579 12.806 82.1857 12.9707 82.7404 13.3C83.295 13.6293 83.737 14.0713 84.0664 14.626C84.3957 15.1633 84.5604 15.7613 84.5604 16.42V21.464C84.5604 22.1227 84.3957 22.7293 84.0664 23.284C83.737 23.8387 83.295 24.2807 82.7404 24.61C82.1857 24.922 81.579 25.078 80.9204 25.078L69.2724 25.104V31.5H65.8404ZM69.5844 21.62H80.7644C80.851 21.62 80.929 21.594 80.9984 21.542C81.0677 21.49 81.1024 21.4207 81.1024 21.334V16.55C81.1024 16.4633 81.0677 16.394 80.9984 16.342C80.929 16.2727 80.851 16.238 80.7644 16.238H69.5844C69.4977 16.238 69.4197 16.2727 69.3504 16.342C69.2984 16.394 69.2724 16.4633 69.2724 16.55V21.334C69.2724 21.4207 69.2984 21.49 69.3504 21.542C69.4197 21.594 69.4977 21.62 69.5844 21.62ZM94.6535 31.5V16.238H87.0095V12.78H105.729V16.238H98.1115V31.5H94.6535ZM123.248 31.5L117.606 24.766H122.104L126.992 30.538V31.5H123.248ZM108.324 31.5V12.806H123.404C124.063 12.806 124.669 12.9707 125.224 13.3C125.779 13.6293 126.221 14.0713 126.55 14.626C126.879 15.1633 127.044 15.7613 127.044 16.42V21.464C127.044 22.1227 126.879 22.7293 126.55 23.284C126.221 23.8387 125.779 24.2807 125.224 24.61C124.669 24.922 124.063 25.078 123.404 25.078L111.756 25.104V31.5H108.324ZM112.068 21.62H123.248C123.335 21.62 123.413 21.594 123.482 21.542C123.551 21.49 123.586 21.4207 123.586 21.334V16.55C123.586 16.4633 123.551 16.394 123.482 16.342C123.413 16.2727 123.335 16.238 123.248 16.238H112.068C111.981 16.238 111.903 16.2727 111.834 16.342C111.782 16.394 111.756 16.4633 111.756 16.55V21.334C111.756 21.4207 111.782 21.49 111.834 21.542C111.903 21.594 111.981 21.62 112.068 21.62ZM130.481 31.5V12.78H147.719V16.238H133.939V20.398H145.015V23.882H133.939V28.042H147.719V31.5H130.481ZM154.547 31.5C153.889 31.5 153.282 31.3353 152.727 31.006C152.19 30.6767 151.757 30.2433 151.427 29.706C151.098 29.1513 150.933 28.5447 150.933 27.886V12.78H154.365V27.73C154.365 27.8167 154.391 27.8947 154.443 27.964C154.513 28.016 154.591 28.042 154.677 28.042H165.857C165.944 28.042 166.022 28.016 166.091 27.964C166.161 27.8947 166.195 27.8167 166.195 27.73V12.78H169.653V27.886C169.653 28.5447 169.489 29.1513 169.159 29.706C168.83 30.2433 168.388 30.6767 167.833 31.006C167.296 31.3353 166.698 31.5 166.039 31.5H154.547ZM176.703 31.5C176.044 31.5 175.437 31.3353 174.883 31.006C174.345 30.6767 173.912 30.2433 173.583 29.706C173.253 29.1513 173.089 28.5447 173.089 27.886V26.456H176.521V27.73C176.521 27.8167 176.547 27.8947 176.599 27.964C176.668 28.016 176.746 28.042 176.833 28.042H188.039C188.125 28.042 188.195 28.016 188.247 27.964C188.316 27.8947 188.351 27.8167 188.351 27.73V24.168C188.351 24.0813 188.316 24.012 188.247 23.96C188.195 23.908 188.125 23.882 188.039 23.882H176.703C176.044 23.882 175.437 23.7173 174.883 23.388C174.345 23.0587 173.912 22.6253 173.583 22.088C173.253 21.5333 173.089 20.918 173.089 20.242V16.394C173.089 15.7353 173.253 15.1373 173.583 14.6C173.912 14.0453 174.345 13.6033 174.883 13.274C175.437 12.9447 176.044 12.78 176.703 12.78H188.195C188.853 12.78 189.451 12.9447 189.989 13.274C190.543 13.6033 190.985 14.0453 191.315 14.6C191.644 15.1373 191.809 15.7353 191.809 16.394V17.824H188.351V16.55C188.351 16.4633 188.316 16.394 188.247 16.342C188.195 16.2727 188.125 16.238 188.039 16.238H176.833C176.746 16.238 176.668 16.2727 176.599 16.342C176.547 16.394 176.521 16.4633 176.521 16.55V20.112C176.521 20.1987 176.547 20.268 176.599 20.32C176.668 20.372 176.746 20.398 176.833 20.398H188.195C188.853 20.398 189.451 20.5627 189.989 20.892C190.543 21.2213 190.985 21.6633 191.315 22.218C191.644 22.7553 191.809 23.362 191.809 24.038V27.886C191.809 28.5447 191.644 29.1513 191.315 29.706C190.985 30.2433 190.543 30.6767 189.989 31.006C189.451 31.3353 188.853 31.5 188.195 31.5H176.703Z" fill="#5D50C6"/>
<defs>
<clipPath id="clip0_234_3344">
<rect width="36" height="39" fill="white" transform="matrix(-1 0 0 1 36 0)"/>
</clipPath>
</defs>
</svg>
