<svg width="40" height="40" viewBox="0 0 40 40" fill="none" xmlns="http://www.w3.org/2000/svg">
<path d="M31.9131 14.8673L31.9133 14.8712C31.9975 16.3675 31.9959 17.8543 31.9942 19.3672C31.994 19.5774 31.9938 19.7881 31.9938 19.9994C31.9938 20.2361 31.9941 20.4721 31.9945 20.7074C31.9966 22.1947 31.9988 23.6558 31.9133 25.1266L31.9131 25.1314C31.8193 27.0688 31.3856 28.6973 30.0433 30.0396C28.7041 31.3788 27.0724 31.8155 25.1352 31.9093L25.1313 31.9095C23.635 31.9937 22.1482 31.9921 20.6353 31.9904C20.4251 31.9902 20.2144 31.99 20.0031 31.99C19.7923 31.99 19.582 31.9902 19.3721 31.9904C17.8613 31.9921 16.3741 31.9937 14.8749 31.9095L14.8711 31.9093C12.9337 31.8155 11.3052 31.3818 9.96295 30.0396C8.6237 28.7003 8.18702 27.0686 8.09321 25.1314L8.09299 25.1275C8.0088 23.6311 8.01042 22.1418 8.01207 20.6304C8.0123 20.4205 8.01253 20.2102 8.01253 19.9994C8.01253 19.7885 8.0123 19.5782 8.01207 19.3683C8.01042 17.8575 8.0088 16.3703 8.09299 14.8712L8.093 14.8712L8.09319 14.8673C8.18703 12.9299 8.62068 11.3014 9.96295 9.95917C11.3022 8.61992 12.9339 8.18324 14.8711 8.08941L14.8711 8.08942L14.875 8.0892C16.3713 8.00502 17.8581 8.00664 19.371 8.00828C19.5812 8.00851 19.7919 8.00874 20.0031 8.00874C20.214 8.00874 20.4243 8.00851 20.6342 8.00828C22.145 8.00664 23.6322 8.00501 25.1314 8.08921V8.08922L25.1352 8.08941C27.0726 8.18325 28.7011 8.6169 30.0433 9.95917C31.3826 11.2984 31.8193 12.9302 31.9131 14.8673ZM24.675 13.3275C24.675 14.4317 25.5675 15.3242 26.6717 15.3244L28.1688 13.3275H28.6688C28.6688 13.3273 28.6688 13.3271 28.6688 13.3269C28.6684 12.2229 27.776 11.3306 26.6719 11.3306C25.5676 11.3306 24.675 12.2232 24.675 13.3275ZM16.3344 19.9994C16.3344 17.9818 17.9824 16.3337 20 16.3337C22.0176 16.3337 23.6657 17.9818 23.6657 19.9994C23.6657 22.017 22.0176 23.665 20 23.665C17.9824 23.665 16.3344 22.017 16.3344 19.9994ZM30.3969 30.3931C31.8625 28.9275 32.3157 27.1556 32.4125 25.1556L7.59378 14.8431C7.50872 16.3576 7.51039 17.8601 7.51206 19.3695C7.51229 19.5793 7.51253 19.7892 7.51253 19.9994C7.51253 20.2095 7.51229 20.4194 7.51206 20.6293C7.51039 22.1393 7.50872 23.6438 7.59378 25.1556C7.69065 27.1556 8.1469 28.9306 9.6094 30.3931C11.075 31.8587 12.8469 32.3119 14.8469 32.4087C16.3614 32.4938 17.8639 32.4921 19.3734 32.4905C19.5831 32.4902 19.793 32.49 20.0031 32.49C20.2137 32.49 20.424 32.4902 20.6341 32.4905C22.1456 32.4921 23.6477 32.4938 25.1594 32.4087C27.1594 32.3119 28.9344 31.8556 30.3969 30.3931ZM13.0907 19.9994C13.0907 23.8224 16.177 26.9087 20 26.9087C23.823 26.9087 26.9094 23.8224 26.9094 19.9994C26.9094 16.1763 23.823 13.09 20 13.09C16.177 13.09 13.0907 16.1763 13.0907 19.9994Z" stroke="#6039CF"/>
</svg>
