<svg width="16" height="15" viewBox="0 0 16 15" fill="none" xmlns="http://www.w3.org/2000/svg">
<path d="M8.81929 1.955L9.99262 4.30167C10.1526 4.62833 10.5793 4.94167 10.9393 5.00167L13.066 5.355C14.426 5.58167 14.746 6.56833 13.766 7.54167L12.1126 9.195C11.8326 9.475 11.6793 10.015 11.766 10.4017L12.2393 12.4483C12.6126 14.0683 11.7526 14.695 10.3193 13.8483L8.32595 12.6683C7.96595 12.455 7.37262 12.455 7.00596 12.6683L5.01262 13.8483C3.58595 14.695 2.71929 14.0617 3.09262 12.4483L3.56595 10.4017C3.65262 10.015 3.49929 9.475 3.21929 9.195L1.56595 7.54167C0.592622 6.56833 0.905955 5.58167 2.26596 5.355L4.39262 5.00167C4.74595 4.94167 5.17262 4.62833 5.33262 4.30167L6.50596 1.955C7.14595 0.681667 8.18595 0.681667 8.81929 1.955Z" fill="#FFC005" stroke="#FFC005" stroke-width="1.5" stroke-linecap="round" stroke-linejoin="round"/>
</svg>
